<svg width="50" height="50" viewBox="0 0 50 50" fill="none" xmlns="http://www.w3.org/2000/svg">
<circle cx="25" cy="25" r="25" fill="#E8E8E8"/>
<path fill-rule="evenodd" clip-rule="evenodd" d="M24.9992 33.75C25.165 33.75 25.3239 33.6842 25.4412 33.567C25.5584 33.4498 25.6242 33.2908 25.6242 33.125L25.6242 18.3838L29.5567 22.3175C29.6148 22.3756 29.6838 22.4217 29.7597 22.4532C29.8357 22.4846 29.917 22.5008 29.9992 22.5008C30.0814 22.5008 30.1628 22.4846 30.2387 22.4532C30.3146 22.4217 30.3836 22.3756 30.4417 22.3175C30.4998 22.2594 30.5459 22.1904 30.5774 22.1145C30.6088 22.0386 30.625 21.9572 30.625 21.875C30.625 21.7928 30.6088 21.7115 30.5774 21.6355C30.5459 21.5596 30.4998 21.4906 30.4417 21.4325L25.4417 16.4325C25.3837 16.3743 25.3147 16.3281 25.2388 16.2966C25.1628 16.2651 25.0814 16.2489 24.9992 16.2489C24.917 16.2489 24.8356 16.2651 24.7597 16.2966C24.6837 16.3281 24.6148 16.3743 24.5567 16.4325L19.5567 21.4325C19.4986 21.4906 19.4525 21.5596 19.4211 21.6355C19.3896 21.7115 19.3734 21.7928 19.3734 21.875C19.3734 21.9572 19.3896 22.0386 19.4211 22.1145C19.4525 22.1904 19.4986 22.2594 19.5567 22.3175C19.6148 22.3756 19.6838 22.4217 19.7597 22.4532C19.8357 22.4846 19.917 22.5008 19.9992 22.5008C20.0814 22.5008 20.1628 22.4846 20.2387 22.4532C20.3146 22.4217 20.3836 22.3756 20.4417 22.3175L24.3742 18.3838L24.3742 33.125C24.3742 33.2908 24.4401 33.4498 24.5573 33.567C24.6745 33.6842 24.8335 33.75 24.9992 33.75Z" fill="#333333"/>
</svg>
