<svg width="21" height="18" viewBox="0 0 21 18" fill="none" xmlns="http://www.w3.org/2000/svg">
<path d="M0 2.49001H2.56" stroke="#1D1D1B" stroke-miterlimit="10"/>
<path d="M6.60938 2.49001H20.6694" stroke="#1D1D1B" stroke-miterlimit="10"/>
<path d="M0 8.72H13.64" stroke="#1D1D1B" stroke-miterlimit="10"/>
<path d="M17.7109 8.72H20.6709" stroke="#1D1D1B" stroke-miterlimit="10"/>
<path d="M0 14.94H5.55" stroke="#1D1D1B" stroke-miterlimit="10"/>
<path d="M10.0195 14.94H20.6695" stroke="#1D1D1B" stroke-miterlimit="10"/>
<path d="M4.89039 4.48C5.98944 4.48 6.88039 3.58905 6.88039 2.49C6.88039 1.39095 5.98944 0.5 4.89039 0.5C3.79134 0.5 2.90039 1.39095 2.90039 2.49C2.90039 3.58905 3.79134 4.48 4.89039 4.48Z" stroke="#1D1D1B" stroke-miterlimit="10"/>
<path d="M15.7205 10.71C16.8195 10.71 17.7105 9.81904 17.7105 8.72C17.7105 7.62095 16.8195 6.73 15.7205 6.73C14.6214 6.73 13.7305 7.62095 13.7305 8.72C13.7305 9.81904 14.6214 10.71 15.7205 10.71Z" stroke="#1D1D1B" stroke-miterlimit="10"/>
<path d="M8.07984 16.93C9.17889 16.93 10.0698 16.039 10.0698 14.94C10.0698 13.841 9.17889 12.95 8.07984 12.95C6.9808 12.95 6.08984 13.841 6.08984 14.94C6.08984 16.039 6.9808 16.93 8.07984 16.93Z" stroke="#1D1D1B" stroke-miterlimit="10"/>
</svg>
